# AST/ASF file generated using VICON BodyLanguage
# -----------------------------------------------
:version 1.10
:name VICON
:units
  mass 1.0
  length 0.45
  angle deg
:documentation
   .ast/.asf automatically generated from VICON data using
   VICON BodyBuilder and BodyLanguage model FoxedUp or BRILLIANT.MOD
:root
   order TX TY TZ RX RY RZ
   axis XYZ
   position 0 0 0  
   orientation 0 0 0 
:bonedata
  begin
     id 1 
     name lhipjoint
     direction 0.604623 -0.733026 0.311616 
     length 2.56391 
     axis 0 0 0  XYZ
  end
  begin
     id 2 
     name lfemur
     direction 0.34202 -0.939693 0  
     length 7.75596  
     axis 0 0 20  XYZ
    dof rx ry rz
    limits (-160.0 20.0)
           (-70.0 70.0)
           (-60.0 70.0)
  end
  begin
     id 3 
     name ltibia
     direction 0.34202 -0.939693 0   
     length 7.63697   
     axis 0 0 20   XYZ
    dof rx
    limits (-10.0 170.0)
  end
  begin
     id 4 
     name lfoot
     direction 0.048038 -0.131983 0.990087   
     length 1.94388   
     axis -90 7.62852e-016 20   XYZ
    dof rx rz
    limits (-45.0 90.0)
           (-70.0 20.0)
  end
  begin
     id 5 
     name ltoes
     direction 1.53565e-011 -4.21929e-011 1   
     length 0.984801   
     axis -90 7.62852e-016 20   XYZ
    dof rx
    limits (-90.0 20.0)
  end
  begin
     id 6 
     name rhipjoint
     direction -0.609162 -0.729836 0.31026   
     length 2.57511  
     axis 0 0 0  XYZ 
  end
  begin
     id 7 
     name rfemur
     direction -0.34202 -0.939693 0   
     length 7.60772   
     axis 0 0 -20   XYZ
    dof rx ry rz
    limits (-160.0 20.0)
           (-70.0 70.0)
           (-70.0 60.0)
  end
  begin
     id 8 
     name rtibia
     direction -0.34202 -0.939693 0   
     length 7.68497   
     axis 0 0 -20   XYZ
    dof rx
    limits (-10.0 170.0)
 end
 begin
     id 9 
     name rfoot
     direction -0.0969806 -0.266452 0.958957   
     length 2.01398  
     axis -90 -7.62852e-016 -20   XYZ
    dof rx rz
    limits (-45.0 90.0)
           (-20.0 70.0)
  end
  begin
     id 10 
     name rtoes
     direction -1.53552e-011 -4.21869e-011 1   
     length 1.00896   
     axis -90 -7.62852e-016 -20   XYZ
    dof rx
    limits (-90.0 20.0)
  end
  begin
     id 11 
     name lowerback
     direction 0.0305179 0.993923 -0.10576   
     length 2.09077   
     axis 0 0 0   XYZ
    dof rx ry rz
    limits (-20.0 45.0)
           (-30.0 30.0)
           (-30.0 30.0)
  end
  begin
     id 12 
     name upperback
     direction -0.0137909 0.999867 0.00873764   
     length 2.08918   
     axis 0 0 0   XYZ
    dof rx ry rz
    limits (-20.0 45.0)
           (-30.0 30.0)
           (-30.0 30.0)
  end
  begin
     id 13 
     name thorax
     direction -0.0278536 0.997917 0.0581839   
     length 2.11939   
     axis 0 0 0   XYZ
    dof rx ry rz
    limits (-20.0 45.0)
           (-30.0 30.0)
           (-30.0 30.0)
  end
  begin
     id 14 
     name lowerneck
     direction 0.0138689 0.999837 -0.0116016   
     length 1.74353   
     axis 0 0 0   XYZ
    dof rx ry rz
    limits (-20.0 45.0)
           (-30.0 30.0)
           (-30.0 30.0)
  end
  begin
     id 15 
     name upperneck
     direction -0.00992078 0.999667 0.0238149   
     length 1.71734   
     axis 0 0 0   XYZ
    dof rx ry rz
    limits (-20.0 45.0)
           (-30.0 30.0)
           (-30.0 30.0)
  end
  begin
     id 16
     name head
     direction -0.00530555 0.999941 0.00944937  
     length 1.78249  
     axis 0 0 0   XYZ
    dof rx ry rz
    limits (-20.0 45.0)
           (-30.0 30.0)
           (-30.0 30.0)
  end
  begin
     id 17 
     name lclavicle
     direction 0.929165 0.366864 0.0454227  
     length 3.65686  
     axis 0 0 0   XYZ
    dof ry rz
    limits (-20.0 10.0)
           (0.0 20.0)
  end
  begin
     id 18 
     name lhumerus
     direction 1 -4.4897e-011 3.05413e-018   
     length 5.15218   
     axis -180 -30 -90   XYZ
    dof rx ry rz
    limits (-60.0 90.0)
           (-90.0 90.0)
           (-90.0 90.0)
  end
  begin
     id 19
     name lradius
     direction 1 -4.48963e-011 5.40022e-027   
     length 3.49459   
     axis -180 -30 -90   XYZ
    dof rx
    limits (-10.0 170.0)
  end
  begin
     id 20
     name lwrist
     direction 1 -4.48966e-011 9.79369e-027   
     length 1.7473   
     axis -4.67603e-015 90 90   XYZ
    dof ry
    limits (-180.0 0.0)
 end
  begin
     id 21 
     name lhand
     direction 1 -4.48996e-011 1.9593e-026   
     length 0.512466   
     axis -1.24987e-014 90 90   XYZ
    dof rx rz
    limits (-90.0 90.0)
           (-45.0 45.0)
  end
  begin
     id 22 
     name lfingers
     direction 1 -4.48931e-011 3.91616e-026   
     length 0.413163   
     axis -2.49979e-014 90 90   XYZ
    dof rx
    limits (0.0 90.0)
  end
  begin
     id 23
     name lthumb
     direction 0.707107 -6.34959e-011 0.707107   
     length 0.593222   
     axis -90 45 5.69224e-014   XYZ
    dof rx rz
    limits (-45.0 45.0)
           (-45.0 45.0)
  end
  begin
     id 24 
     name rclavicle
     direction -0.951469 0.307727 0.00346571   
     length 3.42864  
     axis 0 0 0   XYZ 
    dof ry rz
    limits (-10.0 20.0)
           (-20.0 0.0)
  end
  begin
     id 25 
     name rhumerus
     direction -1 -4.48967e-011 2.58643e-027  
     length 5.44344   
     axis -180 30 90   XYZ
    dof rx ry rz
    limits (-90.0 60.0)
           (-90.0 90.0)
           (-90.0 90.0)
  end
  begin
     id 26 
     name rradius
     direction -1 -4.48973e-011 4.26485e-028   
     length 3.58403   
     axis -180 30 90   XYZ
    dof rx
    limits (-10.0 170.0)
  end
  begin
     id 27 
     name rwrist
     direction -1 -4.48962e-011 9.79331e-027   
     length 1.79202   
     axis -4.67603e-015 -90 -90   XYZ
    dof ry
    limits (-180.0 0.0)
  end
  begin
     id 28
     name rhand
     direction -1 -4.48975e-011 1.95891e-026   
     length 0.34249   
     axis -1.24987e-014 -90 -90   XYZ
    dof rx rz
    limits (-90.0 90.0)
           (-45.0 45.0)
  end
  begin
     id 29
     name rfingers
     direction -1 -4.48893e-011 3.9147e-026   
     length 0.276124   
     axis -2.49979e-014 -90 -90   XYZ
    dof rx
    limits (0.0 90.0)
  end
  begin
     id 30
     name rthumb
     direction -0.707107 -6.34898e-011 0.707107   
     length 0.39646   
     axis -90 -45 -5.69224e-014   XYZ
    dof rx rz
    limits (-45.0 45.0)
           (-45.0 45.0)
  end
:hierarchy
  begin
    root lhipjoint rhipjoint lowerback
    lhipjoint lfemur
    lfemur ltibia
    ltibia lfoot
    lfoot ltoes
    rhipjoint rfemur
    rfemur rtibia
    rtibia rfoot
    rfoot rtoes
    lowerback upperback
    upperback thorax
    thorax lowerneck lclavicle rclavicle
    lowerneck upperneck
    upperneck head
    lclavicle lhumerus
    lhumerus lradius
    lradius lwrist
    lwrist lhand lthumb
    lhand lfingers
    rclavicle rhumerus
    rhumerus rradius
    rradius rwrist
    rwrist rhand rthumb
    rhand rfingers
  end

#!OML:ASF H:\charlestonDancing\Project 1\Capture day 1\Session 1\femaleDancer.ASF
:FULLY-SPECIFIED
:DEGREES
140
root -4.28458 16.8332 -3.24214 -349.476 -63.7202 -365.695
lowerback 21.1489 -1.04372 7.97897
upperback 2.37348 0.67922 4.02876
thorax -9.20277 0.0236563 -0.295431
lowerneck 2.23602 -12.9215 -9.19348
upperneck -5.48106 -17.1595 14.106
head 0.0697961 -8.75482 5.46216
rclavicle -8.34896e-015 -6.83819e-014
rhumerus 22.0572 34.1783 -34.5818
rradius 82.4196
rwrist -20.544
rhand -8.83782 -26.182
rfingers 7.12502
rthumb 17.1025 -55.4492
lclavicle -8.34896e-015 -6.83819e-014
lhumerus -13.4638 -21.2686 65.5709
lradius 84.748
lwrist 29.4919
lhand -4.57225 24.4627
lfingers 7.12502
lthumb 21.2044 53.323
rfemur -30.9699 14.8764 10.9136
rtibia 52.0459
rfoot -24.6754 -1.39804
rtoes -36.4701
lfemur -36.5217 -39.3335 4.17343
ltibia 51.5042
lfoot 2.60247 -33.4671
ltoes 29.0804
141
root -4.11117 16.8495 -2.89792 -348.281 -68.2082 -366.568
lowerback 21.1584 -0.956164 7.61703
upperback 2.30728 0.700191 3.94265
thorax -9.28364 0.0386328 -0.190857
lowerneck 2.5328 -13.181 -9.67145
upperneck -5.58242 -17.5354 14.947
head 0.160437 -8.96649 5.76725
rclavicle 1.11319e-014 -3.65764e-014
rhumerus 22.206 34.201 -34.202
rradius 82.1186
rwrist -19.6388
rhand -8.71932 -26.3343
rfingers 7.12502
rthumb 17.2166 -55.5917
lclavicle 1.11319e-014 -3.65764e-014
lhumerus -13.1684 -20.805 65.9522
lradius 84.4102
lwrist 29.1236
lhand -4.94051 24.1345
lfingers 7.12502
lthumb 20.8506 53.0341
rfemur -32.128 16.3702 8.93045
rtibia 50.4521
rfoot -23.5437 1.16892
rtoes -36.8636
lfemur -33.8599 -37.6309 0.950528
ltibia 51.1537
lfoot -5.35163 -30.6176
ltoes 9.11569
142
root -3.94329 16.9383 -2.54413 -345.794 -72.644 -368.481
lowerback 20.8722 -0.955813 7.34548
upperback 2.20525 0.606506 3.91941
thorax -9.24962 0.000802141 -0.0375813
lowerneck 2.86148 -13.4266 -10.0129
upperneck -5.85347 -17.8798 15.9179
head 0.19925 -9.17585 6.10213
rclavicle 4.37326e-015 -6.36111e-015
rhumerus 22.4099 34.1097 -33.7655
rradius 82.0269
rwrist -19.4185
rhand -9.25487 -26.8349
rfingers 7.12502
rthumb 16.7011 -56.1365
lclavicle 4.37326e-015 -6.36111e-015
lhumerus -12.7121 -20.03 66.0273
lradius 84.1673
lwrist 28.7963
lhand -5.48081 23.5282
lfingers 7.12502
lthumb 20.3314 52.484
rfemur -33.3063 17.9125 7.0434
rtibia 48.1097
rfoot -22.0663 3.58625
rtoes -37.1878
lfemur -31.5433 -34.827 -2.02618
ltibia 50.4188
lfoot -11.8395 -26.8926
ltoes 8.60305
143
root -3.78481 17.0256 -2.18504 -341.129 -77.0822 -372.523
lowerback 20.6873 -0.996463 7.19768
upperback 2.06356 0.503271 3.9062
thorax -9.31342 -0.0490735 0.0617296
lowerneck 2.93061 -13.7774 -10.046
upperneck -5.95325 -18.3569 16.5737
head 0.291216 -9.43823 6.26779
rclavicle 1.90833e-014 -4.6118e-014
rhumerus 22.3795 33.7407 -33.5561
rradius 82.0066
rwrist -19.4866
rhand -8.88355 -26.8783
rfingers 7.12502
rthumb 17.0585 -56.1494
lclavicle 1.90833e-014 -4.6118e-014
lhumerus -12.2113 -19.1201 65.8389
lradius 84.1194
lwrist 28.6549
lhand -5.99856 23.3928
lfingers 7.12502
lthumb 19.8337 52.4008
rfemur -34.6076 19.2775 5.28181
rtibia 45.4535
rfoot -20.3161 6.49831
rtoes -36.6133
lfemur -29.487 -31.9382 -4.50829
ltibia 49.3914
lfoot -20.0367 -20.4185
ltoes -17.8198
144
root -3.6281 17.1649 -1.82519 -333.704 -81.544 -379.238
lowerback 20.5701 -1.00578 6.73711
upperback 1.96739 0.368674 3.80495
thorax -9.36548 -0.100744 0.248704
lowerneck 2.7075 -14.1305 -9.96979
upperneck -5.94788 -18.8301 17.1965
head 0.450162 -9.68759 6.3783
rclavicle -1.19271e-014 -2.70347e-014
rhumerus 22.179 33.0023 -33.5089
rradius 82.141
rwrist -19.7542
rhand -10.1229 -27.3363
rfingers 7.12502
rthumb 15.8653 -56.7063
lclavicle -1.19271e-014 -2.70347e-014
lhumerus -11.548 -18.0727 65.3484
lradius 84.2371
lwrist 28.7885
lhand -6.21803 23.9362
lfingers 7.12502
lthumb 19.6228 52.9659
rfemur -36.061 20.4104 3.31382
rtibia 42.6877
rfoot -17.9127 9.54477
rtoes -34.9868
lfemur -28.6955 -30.4186 -6.10358
ltibia 48.2981
lfoot -19.2707 -19.0648
ltoes -11.3965
145
root -3.47736 17.2732 -1.47535 -317.957 -85.7889 -394.183
lowerback 20.2452 -1.0647 5.78468
upperback 1.93436 0.0331562 3.601
thorax -9.2395 -0.222855 0.651204
lowerneck 2.71736 -14.3633 -9.72361
upperneck -6.23063 -19.1227 17.7986
head 0.447424 -9.86929 6.50632
rclavicle 1.23246e-014 1.66979e-014
rhumerus 22.0064 31.9257 -33.513
rradius 82.2696
rwrist -20.0628
rhand -10.9963 -27.4358
rfingers 7.12502
rthumb 15.024 -56.8707
lclavicle 1.23246e-014 1.66979e-014
lhumerus -10.8278 -16.8865 64.3966
lradius 84.5313
lwrist 29.175
lhand -5.96921 25.9292
lfingers 7.12502
lthumb 19.862 54.9343
rfemur -37.6576 20.5899 1.3378
rtibia 40.0986
rfoot -15.7324 11.7737
rtoes -37.5801
lfemur -28.377 -28.2622 -8.09602
ltibia 47.3181
lfoot -19.4565 -16.1485
ltoes -15.6792
146
root -3.29098 17.3423 -1.14775 -273.804 -88.2735 -436.369
lowerback 18.9923 -1.59979 4.88047
upperback 1.3562 -0.912559 3.44233
thorax -9.20877 -0.628988 1.22957
lowerneck 3.35283 -14.4867 -9.86457
upperneck -6.71075 -19.3014 18.7059
head 0.34406 -10.0295 6.84355
rclavicle 1.66979e-014 -1.43125e-014
rhumerus 21.7217 30.9558 -33.4867
rradius 82.641
rwrist -20.4954
rhand -9.73787 -29.2624
rfingers 7.12502
rthumb 16.2361 -58.6025
lclavicle 1.66979e-014 -1.43125e-014
lhumerus -10.2173 -15.8384 63.1609
lradius 84.7175
lwrist 29.615
lhand -6.22563 29.3636
lfingers 7.12502
lthumb 19.6154 58.3941
rfemur -40.0889 18.0654 -0.161743
rtibia 38.2041
rfoot -13.7931 12.854
rtoes -39.249
lfemur -30.5466 -26.1817 -9.376
ltibia 46.7777
lfoot -18.3855 -14.049
ltoes -15.8607
147
root -3.25928 17.4775 -0.824217 -195.897 -83.5582 -515.991
lowerback 20.4095 -1.1548 4.63289
upperback 2.05177 -0.376482 3.40537
thorax -9.20502 -0.383864 1.20505
lowerneck 3.82432 -14.6399 -10.3542
upperneck -6.69455 -19.5924 19.6576
head 0.470054 -10.2186 7.19235
rclavicle -3.18055e-015 -8.74653e-015
rhumerus 21.313 29.6977 -33.694
rradius 82.2612
rwrist -19.9267
rhand -9.83693 -28.8596
rfingers 7.12502
rthumb 16.1407 -58.2075
lclavicle -3.18055e-015 -8.74653e-015
lhumerus -9.3858 -14.9832 61.6826
lradius 84.4994
lwrist 29.818
lhand -9.23587 24.6596
lfingers 7.12502
lthumb 16.7194 53.9596
rfemur -39.2185 19.0513 1.93421
rtibia 37.2884
rfoot -8.83674 13.1454
rtoes -23.9345
lfemur -26.7861 -22.0359 -11.5836
ltibia 46.2191
lfoot -18.4679 -12.5384
ltoes -11.4017
148
root -3.15789 17.5405 -0.543206 -188.106 -79.2091 -523.617
lowerback 20.2062 -1.16047 4.17372
upperback 2.09453 -0.515266 3.3817
thorax -9.04471 -0.435454 1.47223
lowerneck 3.79246 -14.9122 -10.4974
upperneck -6.02001 -20.0782 19.9962
head 0.795182 -10.4458 7.22739
rclavicle -7.95139e-015 1.35174e-014
rhumerus 20.6297 28.2011 -34.2038
rradius 81.5527
rwrist -19.2762
rhand -10.7713 -28.1797
rfingers 7.12502
rthumb 15.2408 -57.5982
lclavicle -7.95139e-015 1.35174e-014
lhumerus -8.15768 -14.2786 59.9462
lradius 83.7821
lwrist 29.7151
lhand -9.4633 28.6584
lfingers 7.12502
lthumb 16.5004 57.9768
rfemur -39.4463 16.6981 4.38549
rtibia 37.8705
rfoot -10.1227 9.29531
rtoes -33.3241
lfemur -26.597 -18.2466 -12.5091
ltibia 45.9905
lfoot -17.7169 -12.165
ltoes -7.77716
